<?xml version="1.0" encoding="UTF-8"?>
<svg version="1.1" xmlns="http://www.w3.org/2000/svg" width="512" height="512">
<path d="M0 0 C1.01790619 0.00215515 2.03581238 0.0043103 3.08456421 0.00653076 C17.69363523 0.05620146 32.02575853 0.30709809 46.375 3.3125 C47.34985352 3.51117676 48.32470703 3.70985352 49.32910156 3.91455078 C97.7109774 14.03517194 141.69928269 35.9516877 177.375 70.3125 C178.3640332 71.26068604 178.3640332 71.26068604 179.37304688 72.22802734 C188.86130305 81.37247479 197.6012044 90.66984009 205.375 101.3125 C206.23306152 102.46355017 207.09113451 103.61459177 207.94921875 104.765625 C213.98736829 112.95680614 219.34595521 121.47054105 224.375 130.3125 C224.73948242 130.94430176 225.10396484 131.57610352 225.47949219 132.22705078 C247.08534998 169.97532572 256.85198095 212.74189997 256.6875 255.9375 C256.68534485 256.95540619 256.6831897 257.97331238 256.68096924 259.02206421 C256.63129854 273.63113523 256.38040191 287.96325853 253.375 302.3125 C253.07698486 303.77478027 253.07698486 303.77478027 252.77294922 305.26660156 C242.65232806 353.6484774 220.7358123 397.63678269 186.375 433.3125 C185.74287598 433.97185547 185.11075195 434.63121094 184.45947266 435.31054688 C175.31502521 444.79880305 166.01765991 453.5387044 155.375 461.3125 C154.22394983 462.17056152 153.07290823 463.02863451 151.921875 463.88671875 C143.73224019 469.92427396 135.22961724 475.30707302 126.375 480.3125 C125.66778809 480.7146875 124.96057617 481.116875 124.23193359 481.53125 C101.09654164 494.5566741 75.92537591 503.30551461 49.9375 508.625 C49.21860596 508.77235596 48.49971191 508.91971191 47.7590332 509.0715332 C33.08339502 511.86090125 18.55831162 512.66142619 3.64770508 512.62817383 C0.70811513 512.6250221 -2.2304558 512.64854926 -5.16992188 512.67382812 C-18.54306192 512.71848737 -31.43916711 511.51301542 -44.625 509.3125 C-46.33055054 509.03031616 -46.33055054 509.03031616 -48.07055664 508.74243164 C-91.33802759 500.97044532 -132.38793216 480.98345309 -165.625 452.3125 C-166.37007813 451.67828125 -167.11515625 451.0440625 -167.8828125 450.390625 C-181.38779833 438.57948485 -194.05918743 425.82889772 -204.625 411.3125 C-205.48149066 410.16255169 -206.33826433 409.01281411 -207.1953125 407.86328125 C-213.23534209 399.67315742 -218.61867614 391.16870382 -223.625 382.3125 C-224.0271875 381.60528809 -224.429375 380.89807617 -224.84375 380.16943359 C-237.8691741 357.03404164 -246.61801461 331.86287591 -251.9375 305.875 C-252.08485596 305.15610596 -252.23221191 304.43721191 -252.3840332 303.6965332 C-255.35789088 288.05024391 -255.99800362 272.57681954 -255.9375 256.6875 C-255.93534485 255.66959381 -255.9331897 254.65168762 -255.93096924 253.60293579 C-255.88129854 238.99386477 -255.63040191 224.66174147 -252.625 210.3125 C-252.42632324 209.33764648 -252.22764648 208.36279297 -252.02294922 207.35839844 C-241.90232806 158.9765226 -219.9858123 114.98821731 -185.625 79.3125 C-184.99287598 78.65314453 -184.36075195 77.99378906 -183.70947266 77.31445312 C-174.56502521 67.82619695 -165.26765991 59.0862956 -154.625 51.3125 C-153.47394983 50.45443848 -152.32290823 49.59636549 -151.171875 48.73828125 C-142.98224019 42.70072604 -134.47961724 37.31792698 -125.625 32.3125 C-124.91778809 31.9103125 -124.21057617 31.508125 -123.48193359 31.09375 C-100.34654164 18.0683259 -75.17537591 9.31948539 -49.1875 4 C-48.46860596 3.85264404 -47.74971191 3.70528809 -47.0090332 3.5534668 C-31.36274391 0.57960912 -15.88931954 -0.06050362 0 0 Z " fill="#016A4E" transform="translate(255.625,-0.3125)"/>
<path d="M0 0 C2.25051472 0.01078796 4.50024049 -0.00001236 6.75073242 -0.01269531 C15.53398511 -0.02109695 23.89737745 0.6179236 32.5534668 2.26074219 C33.77420898 2.47214844 34.99495117 2.68355469 36.25268555 2.90136719 C70.05067247 9.7935057 98.81836137 26.50826424 123.5534668 50.26074219 C124.1088916 50.79135254 124.66431641 51.32196289 125.23657227 51.86865234 C149.06799277 75.08209947 164.61919825 107.80318801 170.5534668 140.26074219 C170.72265625 141.00960693 170.8918457 141.75847168 171.06616211 142.5300293 C172.70319068 150.26520735 172.85948629 157.87110606 172.81420898 165.73803711 C172.80356745 167.92753336 172.81411907 170.11619388 172.8269043 172.30566406 C172.86498947 209.4619211 160.81190107 246.06095645 137.5534668 275.26074219 C136.89628662 276.08711182 136.89628662 276.08711182 136.22583008 276.93017578 C107.89034069 312.16332121 66.80335115 336.19465404 21.5534668 341.26074219 C15.54110459 341.682253 9.52691562 341.69552325 3.50244141 341.65185547 C0.85682169 341.6356863 -1.78728556 341.65186025 -4.43286133 341.67089844 C-14.84247476 341.68404296 -24.30475619 340.77407557 -34.4465332 338.26074219 C-35.33687256 338.05674805 -36.22721191 337.85275391 -37.14453125 337.64257812 C-65.98821344 330.92913982 -92.51513933 317.19488031 -113.9309082 296.63574219 C-116.35063233 294.26585221 -116.35063233 294.26585221 -118.8371582 292.44824219 C-132.23792598 281.21406561 -142.60240839 264.70643035 -150.4465332 249.26074219 C-150.76315918 248.64521484 -151.07978516 248.0296875 -151.40600586 247.39550781 C-171.28966097 208.31348283 -175.21288827 161.84219889 -162.04418945 120.02636719 C-152.18331335 90.11603604 -135.14002124 61.31893383 -110.4465332 41.26074219 C-108.97313477 40.03097656 -108.97313477 40.03097656 -107.4699707 38.77636719 C-76.8364587 13.62392866 -39.65461647 -0.2253842 0 0 Z " fill="#ED2F43" transform="translate(211.446533203125,85.7392578125)"/>
</svg>
